<svg width="81" height="53" viewBox="0 0 81 53" fill="none" xmlns="http://www.w3.org/2000/svg">
<path d="M45.8743 50.4294C57.0415 50.4294 66.0943 41.4661 66.0943 30.4094C66.0943 19.3527 57.0415 10.3894 45.8743 10.3894C34.7071 10.3894 25.6543 19.3527 25.6543 30.4094C25.6543 41.4661 34.7071 50.4294 45.8743 50.4294Z" fill="#FFC524"/>
<path d="M62.6141 36.4594C57.3641 34.4694 52.2941 32.0294 47.0241 30.0894C42.4041 28.3894 37.9941 26.1894 33.7041 23.7894C31.8641 22.7594 30.0541 21.6894 28.2441 20.6194C26.6341 23.4494 25.7041 26.7094 25.6641 30.1794C26.2141 30.4194 26.7741 30.6594 27.3341 30.8994C35.0741 34.2394 42.9641 37.3094 51.1141 39.5394C54.8041 40.5494 58.5841 41.7494 62.4341 41.9194C63.4441 40.4994 64.2641 38.9394 64.8841 37.2894C64.1141 37.0194 63.3641 36.7494 62.6141 36.4594Z" fill="#FF8500"/>
<path d="M29.8945 18.1493C33.6245 20.3593 37.3845 22.5293 41.2845 24.4193C45.7745 26.5893 50.4945 28.1893 55.0845 30.1393C58.5945 31.6293 62.0845 33.1893 65.6945 34.4493C65.9645 33.1493 66.1045 31.7993 66.1045 30.4193C66.1045 29.0093 65.9545 27.6293 65.6745 26.3093C61.9245 25.4793 58.2845 24.1793 54.6345 22.9793C49.6645 21.3493 44.6745 19.7793 39.7445 18.0093C37.3745 17.1593 35.0445 16.2293 32.6345 15.4793C32.5745 15.4593 32.5245 15.4493 32.4645 15.4293C31.5245 16.2493 30.6645 17.1593 29.8945 18.1493Z" fill="#FF8500"/>
<path d="M48.9945 42.0193C44.7745 40.8093 40.6245 39.3893 36.5245 37.8393C32.9445 36.4893 29.4145 34.9993 25.8945 33.4993C27.3945 43.0893 35.7645 50.4393 45.8745 50.4393C51.4145 50.4393 56.4345 48.2293 60.0845 44.6593C56.3245 44.1793 52.6245 43.0593 48.9945 42.0193Z" fill="#FF8500"/>
<g opacity="0.3">
<path opacity="0.3" d="M61.5939 41.1093C58.8539 42.6593 55.6839 43.5493 52.3039 43.5493C41.9239 43.5493 33.5039 35.2094 33.5039 24.9294C33.5039 19.6394 35.7339 14.8594 39.3239 11.4694C38.1139 11.8794 36.9539 12.3993 35.8639 13.0193C36.4839 12.6693 37.1339 12.3494 37.7939 12.0594C31.6539 15.4994 27.5039 22.0194 27.5039 29.5094C27.5039 40.5694 36.5539 49.5294 47.7239 49.5294C50.6039 49.5294 53.3439 48.9293 55.8239 47.8593C54.9339 48.3593 53.9939 48.7994 53.0239 49.1594C57.5239 47.4794 61.2639 44.2494 63.5739 40.1394C62.9239 40.4894 62.2739 40.8193 61.5939 41.1093Z" fill="#232323"/>
</g>
<path d="M39.0145 14.5994C43.8945 16.4094 48.8345 18.0194 53.7945 19.5994C57.4045 20.7494 60.9945 22.0694 64.6745 23.0094C61.7045 15.6094 54.4045 10.3894 45.8845 10.3894C42.0445 10.3894 38.4545 11.4494 35.3945 13.2894C36.5945 13.7094 37.8045 14.1594 39.0145 14.5994Z" fill="#FF8500"/>
<g opacity="0.6">
<path opacity="0.6" d="M54.6247 12.5693C59.9647 16.1693 63.4647 22.2393 63.4647 29.1193C63.4647 40.1793 54.4147 49.1393 43.2447 49.1393C40.3247 49.1393 37.5547 48.5293 35.0547 47.4293C38.2947 49.6093 42.2047 50.8893 46.4147 50.8893C57.5847 50.8893 66.6347 41.9193 66.6347 30.8693C66.6347 22.7093 61.6947 15.6893 54.6247 12.5693Z" fill="white"/>
</g>
<path d="M45.874 50.9993C34.414 50.9993 25.084 41.7693 25.084 30.4093C25.084 19.0593 34.404 9.81934 45.874 9.81934C57.334 9.81934 66.664 19.0493 66.664 30.4093C66.664 41.7593 57.334 50.9993 45.874 50.9993ZM45.874 10.9493C35.034 10.9493 26.224 19.6793 26.224 30.4093C26.224 41.1393 35.044 49.8693 45.874 49.8693C56.704 49.8693 65.524 41.1393 65.524 30.4093C65.534 19.6793 56.714 10.9493 45.874 10.9493Z" fill="#5B1B72"/>
<path d="M61.9525 17.8494C65.8625 17.5094 68.6225 18.1494 69.4725 19.8794C71.4025 23.8394 62.6025 32.0193 49.8125 38.1493C37.0225 44.2793 25.0825 46.0294 23.1425 42.0694C22.3025 40.3494 23.4825 37.8294 26.1425 35.0394L25.6625 30.0793C17.3625 36.6093 12.9825 43.3694 15.0925 47.6894C18.2825 54.2294 35.1625 52.6994 52.7825 44.2594C70.4025 35.8194 82.1025 23.6794 78.9025 17.1294C76.7925 12.8094 68.7125 12.0093 58.4025 14.3993L61.9525 17.8494Z" fill="#FFB600"/>
<g opacity="0.3">
<path opacity="0.3" d="M78.9026 17.1193C78.6626 16.6393 78.3526 16.1993 77.9726 15.7993C80.4026 22.4393 68.8526 34.2093 51.6526 42.4493C35.3426 50.2593 19.6726 52.1593 14.8926 47.2093C14.9526 47.3693 15.0126 47.5293 15.0926 47.6793C18.2826 54.2193 35.1626 52.6893 52.7826 44.2493C70.4026 35.8093 82.1026 23.6593 78.9026 17.1193Z" fill="#5B1B72"/>
</g>
<g opacity="0.7">
<path opacity="0.7" d="M79.2323 18.0093C79.1523 17.6993 79.0423 17.4093 78.9023 17.1193C76.7923 12.7993 68.7123 11.9993 58.4023 14.3893L60.0723 16.0093C69.2623 14.0093 76.5523 14.5893 79.2323 18.0093Z" fill="white"/>
</g>
<g opacity="0.7">
<path opacity="0.7" d="M25.8923 32.4093L25.6723 30.0693C17.3723 36.5993 12.9923 43.3593 15.1023 47.6793C15.2623 47.9993 15.4523 48.3093 15.6823 48.5893C14.5223 44.3893 18.5623 38.3293 25.8923 32.4093Z" fill="white"/>
</g>
<path d="M25.3031 52.2894C19.7331 52.2894 15.9831 50.7794 14.5831 47.9194C12.4031 43.4594 16.4131 36.6194 25.3131 29.6294L26.1331 28.9894L26.7331 35.2294L26.5531 35.4094C23.9831 38.1094 22.9531 40.3894 23.6531 41.8094C25.2231 45.0294 36.0131 44.1194 49.5631 37.6294C63.1131 31.1394 70.5331 23.3294 68.9631 20.1094C68.2631 18.6694 65.7931 18.0594 62.0031 18.3994L61.7431 18.4194L57.2831 14.0594L58.2831 13.8294C69.3431 11.2694 77.2431 12.3994 79.4231 16.8594C81.0831 20.2494 79.1731 25.0394 74.0731 30.3394C69.0931 35.5094 61.6231 40.6194 53.0431 44.7294C44.4631 48.8394 35.7831 51.4594 28.5931 52.1194C27.4331 52.2394 26.3331 52.2894 25.3031 52.2894ZM25.2031 31.1594C17.4331 37.4794 13.7731 43.6694 15.6031 47.4294C17.0131 50.3294 21.7131 51.6294 28.4731 51.0194C35.5231 50.3794 44.0731 47.7894 52.5331 43.7394C60.9931 39.6894 68.3531 34.6594 73.2331 29.5794C77.9231 24.7094 79.8031 20.2594 78.3831 17.3594C76.5431 13.5894 69.3631 12.5994 59.5231 14.7094L62.1431 17.2694C66.3431 16.9394 69.0431 17.7594 69.9531 19.6394C71.0031 21.7994 69.4331 24.9794 65.5231 28.6094C61.7731 32.0994 56.2631 35.6594 50.0331 38.6494C43.7931 41.6394 37.5531 43.6894 32.4631 44.4394C27.1631 45.2194 23.6631 44.4594 22.6131 42.3094C21.7031 40.4494 22.7131 37.8694 25.5331 34.8394L25.2031 31.1594Z" fill="#5B1B72"/>
<path d="M33.5125 2.76315C33.4031 3.74762 32.5278 4.44038 31.5796 4.331C30.5949 4.22161 29.9019 3.34654 30.0114 2.39854C30.1208 1.41408 30.9961 0.721306 31.9443 0.83069C32.929 0.940075 33.6219 1.81515 33.5125 2.76315Z" fill="white"/>
<path d="M19.1104 14.3723C19.1104 15.2838 17.2504 16.086 14.4422 16.5235C13.0199 16.7423 11.9257 17.8726 11.7069 19.2581C11.2693 22.0657 10.4669 23.9252 9.55519 23.9252C8.64343 23.9252 7.84109 22.0657 7.40344 19.2581C7.18462 17.8361 6.05405 16.7423 4.66818 16.5235C1.85998 16.086 0 15.2838 0 14.3723C0 13.4607 1.85998 12.6586 4.66818 12.2211C6.09052 12.0023 7.18462 10.872 7.40344 9.48643C7.84109 6.67888 8.64343 4.81934 9.55519 4.81934C10.4669 4.81934 11.2693 6.67888 11.7069 9.48643C11.9257 10.9084 13.0563 12.0023 14.4422 12.2211C17.2139 12.6586 19.1104 13.4607 19.1104 14.3723Z" fill="white"/>
<path d="M45.8743 50.4294C57.0415 50.4294 66.0943 41.4661 66.0943 30.4094C66.0943 19.3527 57.0415 10.3894 45.8743 10.3894C34.7071 10.3894 25.6543 19.3527 25.6543 30.4094C25.6543 41.4661 34.7071 50.4294 45.8743 50.4294Z" fill="#FFC524"/>
<path d="M62.6141 36.4594C57.3641 34.4694 52.2941 32.0294 47.0241 30.0894C42.4041 28.3894 37.9941 26.1894 33.7041 23.7894C31.8641 22.7594 30.0541 21.6894 28.2441 20.6194C26.6341 23.4494 25.7041 26.7094 25.6641 30.1794C26.2141 30.4194 26.7741 30.6594 27.3341 30.8994C35.0741 34.2394 42.9641 37.3094 51.1141 39.5394C54.8041 40.5494 58.5841 41.7494 62.4341 41.9194C63.4441 40.4994 64.2641 38.9394 64.8841 37.2894C64.1141 37.0194 63.3641 36.7494 62.6141 36.4594Z" fill="#FF8500"/>
<path d="M29.8945 18.1493C33.6245 20.3593 37.3845 22.5293 41.2845 24.4193C45.7745 26.5893 50.4945 28.1893 55.0845 30.1393C58.5945 31.6293 62.0845 33.1893 65.6945 34.4493C65.9645 33.1493 66.1045 31.7993 66.1045 30.4193C66.1045 29.0093 65.9545 27.6293 65.6745 26.3093C61.9245 25.4793 58.2845 24.1793 54.6345 22.9793C49.6645 21.3493 44.6745 19.7793 39.7445 18.0093C37.3745 17.1593 35.0445 16.2293 32.6345 15.4793C32.5745 15.4593 32.5245 15.4493 32.4645 15.4293C31.5245 16.2493 30.6645 17.1593 29.8945 18.1493Z" fill="#FF8500"/>
<path d="M48.9945 42.0193C44.7745 40.8093 40.6245 39.3893 36.5245 37.8393C32.9445 36.4893 29.4145 34.9993 25.8945 33.4993C27.3945 43.0893 35.7645 50.4393 45.8745 50.4393C51.4145 50.4393 56.4345 48.2293 60.0845 44.6593C56.3245 44.1793 52.6245 43.0593 48.9945 42.0193Z" fill="#FF8500"/>
<g opacity="0.3">
<path opacity="0.3" d="M61.5939 41.1093C58.8539 42.6593 55.6839 43.5493 52.3039 43.5493C41.9239 43.5493 33.5039 35.2094 33.5039 24.9294C33.5039 19.6394 35.7339 14.8594 39.3239 11.4694C38.1139 11.8794 36.9539 12.3993 35.8639 13.0193C36.4839 12.6693 37.1339 12.3494 37.7939 12.0594C31.6539 15.4994 27.5039 22.0194 27.5039 29.5094C27.5039 40.5694 36.5539 49.5294 47.7239 49.5294C50.6039 49.5294 53.3439 48.9293 55.8239 47.8593C54.9339 48.3593 53.9939 48.7994 53.0239 49.1594C57.5239 47.4794 61.2639 44.2494 63.5739 40.1394C62.9239 40.4894 62.2739 40.8193 61.5939 41.1093Z" fill="#232323"/>
</g>
<path d="M39.0145 14.5994C43.8945 16.4094 48.8345 18.0194 53.7945 19.5994C57.4045 20.7494 60.9945 22.0694 64.6745 23.0094C61.7045 15.6094 54.4045 10.3894 45.8845 10.3894C42.0445 10.3894 38.4545 11.4494 35.3945 13.2894C36.5945 13.7094 37.8045 14.1594 39.0145 14.5994Z" fill="#FF8500"/>
<g opacity="0.6">
<path opacity="0.6" d="M54.6247 12.5693C59.9647 16.1693 63.4647 22.2393 63.4647 29.1193C63.4647 40.1793 54.4147 49.1393 43.2447 49.1393C40.3247 49.1393 37.5547 48.5293 35.0547 47.4293C38.2947 49.6093 42.2047 50.8893 46.4147 50.8893C57.5847 50.8893 66.6347 41.9193 66.6347 30.8693C66.6347 22.7093 61.6947 15.6893 54.6247 12.5693Z" fill="white"/>
</g>
<path d="M45.874 50.9993C34.414 50.9993 25.084 41.7693 25.084 30.4093C25.084 19.0593 34.404 9.81934 45.874 9.81934C57.334 9.81934 66.664 19.0493 66.664 30.4093C66.664 41.7593 57.334 50.9993 45.874 50.9993ZM45.874 10.9493C35.034 10.9493 26.224 19.6793 26.224 30.4093C26.224 41.1393 35.044 49.8693 45.874 49.8693C56.704 49.8693 65.524 41.1393 65.524 30.4093C65.534 19.6793 56.714 10.9493 45.874 10.9493Z" fill="#5B1B72"/>
<path d="M61.9525 17.8494C65.8625 17.5094 68.6225 18.1494 69.4725 19.8794C71.4025 23.8394 62.6025 32.0193 49.8125 38.1493C37.0225 44.2793 25.0825 46.0294 23.1425 42.0694C22.3025 40.3494 23.4825 37.8294 26.1425 35.0394L25.6625 30.0793C17.3625 36.6093 12.9825 43.3694 15.0925 47.6894C18.2825 54.2294 35.1625 52.6994 52.7825 44.2594C70.4025 35.8194 82.1025 23.6794 78.9025 17.1294C76.7925 12.8094 68.7125 12.0093 58.4025 14.3993L61.9525 17.8494Z" fill="#FFB600"/>
<g opacity="0.3">
<path opacity="0.3" d="M78.9026 17.1193C78.6626 16.6393 78.3526 16.1993 77.9726 15.7993C80.4026 22.4393 68.8526 34.2093 51.6526 42.4493C35.3426 50.2593 19.6726 52.1593 14.8926 47.2093C14.9526 47.3693 15.0126 47.5293 15.0926 47.6793C18.2826 54.2193 35.1626 52.6893 52.7826 44.2493C70.4026 35.8093 82.1026 23.6593 78.9026 17.1193Z" fill="#5B1B72"/>
</g>
<g opacity="0.7">
<path opacity="0.7" d="M79.2323 18.0093C79.1523 17.6993 79.0423 17.4093 78.9023 17.1193C76.7923 12.7993 68.7123 11.9993 58.4023 14.3893L60.0723 16.0093C69.2623 14.0093 76.5523 14.5893 79.2323 18.0093Z" fill="white"/>
</g>
<g opacity="0.7">
<path opacity="0.7" d="M25.8923 32.4093L25.6723 30.0693C17.3723 36.5993 12.9923 43.3593 15.1023 47.6793C15.2623 47.9993 15.4523 48.3093 15.6823 48.5893C14.5223 44.3893 18.5623 38.3293 25.8923 32.4093Z" fill="white"/>
</g>
<path d="M25.3031 52.2894C19.7331 52.2894 15.9831 50.7794 14.5831 47.9194C12.4031 43.4594 16.4131 36.6194 25.3131 29.6294L26.1331 28.9894L26.7331 35.2294L26.5531 35.4094C23.9831 38.1094 22.9531 40.3894 23.6531 41.8094C25.2231 45.0294 36.0131 44.1194 49.5631 37.6294C63.1131 31.1394 70.5331 23.3294 68.9631 20.1094C68.2631 18.6694 65.7931 18.0594 62.0031 18.3994L61.7431 18.4194L57.2831 14.0594L58.2831 13.8294C69.3431 11.2694 77.2431 12.3994 79.4231 16.8594C81.0831 20.2494 79.1731 25.0394 74.0731 30.3394C69.0931 35.5094 61.6231 40.6194 53.0431 44.7294C44.4631 48.8394 35.7831 51.4594 28.5931 52.1194C27.4331 52.2394 26.3331 52.2894 25.3031 52.2894ZM25.2031 31.1594C17.4331 37.4794 13.7731 43.6694 15.6031 47.4294C17.0131 50.3294 21.7131 51.6294 28.4731 51.0194C35.5231 50.3794 44.0731 47.7894 52.5331 43.7394C60.9931 39.6894 68.3531 34.6594 73.2331 29.5794C77.9231 24.7094 79.8031 20.2594 78.3831 17.3594C76.5431 13.5894 69.3631 12.5994 59.5231 14.7094L62.1431 17.2694C66.3431 16.9394 69.0431 17.7594 69.9531 19.6394C71.0031 21.7994 69.4331 24.9794 65.5231 28.6094C61.7731 32.0994 56.2631 35.6594 50.0331 38.6494C43.7931 41.6394 37.5531 43.6894 32.4631 44.4394C27.1631 45.2194 23.6631 44.4594 22.6131 42.3094C21.7031 40.4494 22.7131 37.8694 25.5331 34.8394L25.2031 31.1594Z" fill="#5B1B72"/>
<path d="M33.5125 2.76315C33.4031 3.74762 32.5278 4.44038 31.5796 4.331C30.5949 4.22161 29.9019 3.34654 30.0114 2.39854C30.1208 1.41408 30.9961 0.721306 31.9443 0.83069C32.929 0.940075 33.6219 1.81515 33.5125 2.76315Z" fill="white"/>
<path d="M19.1104 14.3723C19.1104 15.2838 17.2504 16.086 14.4422 16.5235C13.0199 16.7423 11.9257 17.8726 11.7069 19.2581C11.2693 22.0657 10.4669 23.9252 9.55519 23.9252C8.64343 23.9252 7.84109 22.0657 7.40344 19.2581C7.18462 17.8361 6.05405 16.7423 4.66818 16.5235C1.85998 16.086 0 15.2838 0 14.3723C0 13.4607 1.85998 12.6586 4.66818 12.2211C6.09052 12.0023 7.18462 10.872 7.40344 9.48643C7.84109 6.67888 8.64343 4.81934 9.55519 4.81934C10.4669 4.81934 11.2693 6.67888 11.7069 9.48643C11.9257 10.9084 13.0563 12.0023 14.4422 12.2211C17.2139 12.6586 19.1104 13.4607 19.1104 14.3723Z" fill="white"/>
</svg>
