<svg width="150" height="182" viewBox="0 0 150 182" fill="none" xmlns="http://www.w3.org/2000/svg">
<g clip-path="url(#clip0_1016_3747)">
<g opacity="0.35">
<path opacity="0.35" d="M149.999 176.688C149.999 179.348 116.42 181.5 74.9997 181.5C33.5793 181.5 0 179.348 0 176.688C0 175.804 3.70293 174.977 10.1647 174.269H139.835C146.298 174.98 149.999 175.804 149.999 176.688Z" fill="#5B1B72"/>
</g>
<path d="M107.533 124.032L61.5067 129.35C60.3468 129.484 59.1718 129.39 58.0488 129.071C56.9257 128.753 55.8767 128.217 54.9615 127.495C54.0463 126.772 53.283 125.877 52.7152 124.861C52.1473 123.845 51.7861 122.727 51.6521 121.571L47.7007 87.6355L46.9711 81.3694L46.4911 77.2489C46.3562 76.0932 46.4513 74.9224 46.7708 73.8033C47.0903 72.6842 47.6281 71.6388 48.3534 70.7269C49.0787 69.815 49.9772 69.0544 50.9977 68.4885C52.0182 67.9227 53.1406 67.5628 54.3008 67.4293L64.3617 66.2682L96.783 62.5242L100.326 62.1138C101.486 61.9785 102.661 62.0725 103.785 62.3903C104.908 62.7081 105.958 63.2436 106.873 63.966C107.789 64.6884 108.552 65.5836 109.12 66.6003C109.688 67.617 110.049 68.7353 110.183 69.8912L110.728 74.5745L112.329 88.3361L115.342 114.215C115.476 115.37 115.381 116.541 115.062 117.66C114.742 118.779 114.204 119.824 113.479 120.735C112.754 121.647 111.856 122.407 110.836 122.973C109.815 123.539 108.693 123.899 107.533 124.032Z" fill="white"/>
<path d="M60.4754 130.376C55.5421 130.376 51.2699 126.679 50.6875 121.683L45.5296 77.3579C44.9006 71.9772 48.7885 67.0928 54.1891 66.4687L100.215 61.1513C105.618 60.5247 110.521 64.3971 111.146 69.7778L116.304 114.103C116.454 115.384 116.348 116.682 115.993 117.923C115.639 119.164 115.043 120.323 114.238 121.335C113.434 122.346 112.438 123.189 111.307 123.817C110.175 124.445 108.931 124.844 107.644 124.993L61.6176 130.309C61.2385 130.353 60.8571 130.376 60.4754 130.376ZM101.364 63.0154C101.054 63.0157 100.744 63.0337 100.436 63.0693L54.4105 68.3861C52.3244 68.6295 50.4204 69.6873 49.1162 71.3274C47.812 72.9675 47.2141 75.0561 47.4538 77.1348L52.6116 121.46C53.1148 125.784 57.0561 128.894 61.3931 128.391L107.422 123.075C109.508 122.832 111.412 121.774 112.716 120.134C114.02 118.494 114.618 116.406 114.378 114.327L109.217 70.0015C108.993 68.0813 108.07 66.3097 106.622 65.0225C105.174 63.7352 103.303 63.0217 101.362 63.0173L101.364 63.0154Z" fill="#5B1B72"/>
<path d="M119.093 88.4056L112.332 88.3335L47.7011 87.6354L43.5742 87.5922C43.5742 87.5922 44.4177 85.0338 46.9708 81.3669C48.6691 78.9231 51.1292 75.9887 54.6013 72.9954C57.233 70.7239 60.451 68.4211 64.3615 66.2656C65.951 65.3883 67.6543 64.5418 69.479 63.731C79.7796 59.1517 88.7793 58.7388 96.7828 62.5216C98.3362 63.2582 99.8222 64.128 101.224 65.1214C104.564 67.4674 107.732 70.6176 110.728 74.5719C113.653 78.4176 116.441 83.0288 119.093 88.4056Z" fill="white"/>
<path d="M119.088 89.3711H119.078L43.5621 88.5565C43.4098 88.5549 43.26 88.5175 43.1249 88.4473C42.9898 88.3772 42.8732 88.2763 42.7846 88.1529C42.6959 88.0295 42.6377 87.887 42.6147 87.737C42.5916 87.587 42.6044 87.4337 42.652 87.2895C42.852 86.6823 47.8054 72.308 69.0833 62.8519C79.9839 58.0063 89.3893 57.7137 97.8375 61.9621C106.128 66.1297 113.363 74.6409 119.957 87.9819C120.03 88.1291 120.064 88.2923 120.056 88.4562C120.048 88.6201 119.998 88.7792 119.911 88.9185C119.824 89.0578 119.702 89.1727 119.558 89.2523C119.414 89.332 119.252 89.3737 119.088 89.3736V89.3711ZM45.0208 86.641L117.51 87.4211C111.304 75.28 104.575 67.5076 96.9644 63.6821C89.0692 59.7132 80.2078 60.0171 69.8733 64.6108C53.0129 72.1075 46.7304 82.9822 45.0208 86.641Z" fill="#5B1B72"/>
<path d="M97.2227 80.9672C97.2227 80.9672 88.8947 80.9672 86.9115 84.3358C85.1163 87.3855 87.438 88.5341 87.438 88.5341L95.5307 88.8518L97.2227 80.9672Z" fill="white"/>
<path d="M53.2871 80.9672C53.2871 80.9672 61.6145 80.9672 63.5977 84.3358C65.3929 87.3855 63.0719 88.5341 63.0719 88.5341L54.9791 88.8518L53.2871 80.9672Z" fill="white"/>
<path d="M129.546 114.15L131.044 123.89C131.074 124.085 131.054 124.284 130.985 124.468C130.917 124.653 130.803 124.818 130.654 124.947C130.505 125.076 130.325 125.166 130.132 125.207C129.938 125.248 129.737 125.24 129.548 125.183L125.167 123.867H24.8545L20.4923 125.183C20.303 125.24 20.1023 125.249 19.9088 125.208C19.7154 125.166 19.5355 125.077 19.3861 124.948C19.2367 124.819 19.1225 124.654 19.0543 124.469C18.986 124.284 18.966 124.085 18.9959 123.89L20.4948 114.15" fill="#FFC847"/>
<g opacity="0.35">
<path opacity="0.35" d="M129.546 114.15L131.044 123.89C131.074 124.085 131.054 124.284 130.985 124.468C130.917 124.653 130.803 124.818 130.654 124.947C130.505 125.076 130.325 125.166 130.132 125.207C129.938 125.248 129.737 125.24 129.548 125.183L125.167 123.867H24.8545L20.4923 125.183C20.303 125.24 20.1023 125.249 19.9088 125.208C19.7154 125.166 19.5355 125.077 19.3861 124.948C19.2367 124.819 19.1225 124.654 19.0543 124.469C18.986 124.284 18.966 124.085 18.9959 123.89L20.4948 114.15" fill="#5B1B72"/>
</g>
<path d="M129.894 126.201C129.682 126.2 129.472 126.169 129.27 126.108L125.026 124.83H24.9985L20.7742 126.104C20.4281 126.209 20.061 126.224 19.7072 126.149C19.3534 126.074 19.0245 125.911 18.7512 125.675C18.478 125.439 18.2693 125.138 18.1446 124.8C18.02 124.461 17.9835 124.097 18.0386 123.741L19.5375 114.002C19.5765 113.749 19.7147 113.522 19.9219 113.37C20.129 113.219 20.3881 113.155 20.6421 113.194C20.8961 113.233 21.1242 113.371 21.2762 113.577C21.4283 113.783 21.4918 114.041 21.4529 114.294L19.9546 124.034C19.9487 124.067 19.9518 124.102 19.9636 124.134C19.9754 124.166 19.9955 124.194 20.0219 124.215C20.0467 124.239 20.0774 124.255 20.1106 124.262C20.1438 124.269 20.1784 124.267 20.2106 124.256L24.5727 122.94C24.6639 122.913 24.7586 122.899 24.8539 122.899H125.169C125.264 122.899 125.359 122.913 125.45 122.94L129.831 124.256C129.863 124.266 129.898 124.267 129.931 124.26C129.964 124.253 129.995 124.238 130.021 124.216C130.047 124.193 130.067 124.165 130.078 124.133C130.09 124.101 130.093 124.067 130.088 124.033L128.591 114.296C128.557 114.045 128.623 113.791 128.775 113.588C128.927 113.385 129.154 113.249 129.405 113.211C129.656 113.173 129.913 113.234 130.119 113.383C130.325 113.531 130.465 113.754 130.507 114.004L132.006 123.745C132.053 124.048 132.033 124.358 131.949 124.654C131.865 124.949 131.717 125.222 131.517 125.456C131.316 125.689 131.068 125.876 130.788 126.005C130.508 126.133 130.204 126.2 129.895 126.201H129.894Z" fill="#5B1B72"/>
<path d="M126.844 97.4075L125.032 126.028L122.222 170.45C122.157 171.476 121.702 172.44 120.949 173.144C120.196 173.848 119.202 174.24 118.17 174.24H31.8549C30.8223 174.24 29.8284 173.848 29.0755 173.144C28.3227 172.44 27.8674 171.477 27.8023 170.45L24.9944 126.028L23.1816 97.4075H126.844Z" fill="#5B1B72"/>
<g opacity="0.35">
<path opacity="0.35" d="M126.844 97.4075L125.032 126.028L122.214 170.572C122.151 171.566 121.711 172.499 120.982 173.18C120.253 173.862 119.291 174.241 118.292 174.241H32.0204C30.9427 174.241 29.9056 173.832 29.12 173.097C28.3344 172.363 27.8594 171.357 27.7916 170.286H89.2665C104.352 170.286 116.841 158.605 117.789 143.606L118.435 133.404C118.495 132.458 118.359 131.509 118.037 130.617C117.715 129.725 117.213 128.908 116.561 128.217C115.91 127.526 115.123 126.975 114.249 126.599C113.376 126.222 112.434 126.028 111.482 126.028H24.9944L23.1816 97.4075H126.844Z" fill="#5B1B72"/>
</g>
<path d="M80.168 104.694H80.9945C80.8215 105.634 80.6724 106.581 80.5479 107.523C80.3679 106.588 80.2411 105.643 80.168 104.694Z" fill="#FFC847"/>
<path d="M118.901 175.204H31.123C30.0425 175.202 29.0031 174.792 28.2146 174.056C27.4261 173.32 26.9472 172.313 26.8748 171.239L21.4572 88.4863C21.4485 88.3545 21.467 88.2224 21.5117 88.098C21.5563 87.9737 21.6261 87.8598 21.7168 87.7634C21.8074 87.667 21.9169 87.5902 22.0386 87.5376C22.1602 87.4851 22.2914 87.458 22.4239 87.4581H127.599C127.732 87.458 127.863 87.485 127.985 87.5375C128.107 87.5899 128.216 87.6668 128.307 87.7632C128.398 87.8596 128.468 87.9735 128.512 88.0979C128.557 88.2223 128.575 88.3545 128.567 88.4863L123.149 171.241C123.076 172.315 122.597 173.321 121.809 174.056C121.02 174.792 119.981 175.202 118.901 175.204ZM23.4586 89.3874L28.8089 171.114C28.8493 171.699 29.1104 172.246 29.5398 172.647C29.9691 173.048 30.5348 173.271 31.123 173.273H118.901C119.489 173.271 120.055 173.048 120.484 172.647C120.913 172.246 121.175 171.699 121.215 171.114L126.565 89.3874H23.4586Z" fill="#5B1B72"/>
<path d="M132.091 114.15H17.9117C17.6747 114.15 17.4407 114.097 17.2271 113.994C17.0135 113.892 16.8256 113.743 16.6774 113.559C16.5293 113.375 16.4245 113.16 16.371 112.93C16.3174 112.7 16.3164 112.461 16.3681 112.23L21.936 87.5947C22.0681 87.0086 22.3966 86.4849 22.8674 86.1097C23.3383 85.7345 23.9233 85.5303 24.5263 85.5306H125.475C126.078 85.5303 126.663 85.7345 127.134 86.1097C127.605 86.4849 127.934 87.0086 128.066 87.5947L133.632 112.23C133.684 112.461 133.683 112.7 133.63 112.93C133.577 113.159 133.472 113.375 133.324 113.559C133.176 113.743 132.988 113.892 132.775 113.994C132.561 114.096 132.328 114.15 132.091 114.15Z" fill="#FFC847"/>
<g opacity="0.3">
<path opacity="0.3" d="M127.452 86.4092C127.202 86.1327 126.898 85.9117 126.557 85.7606C126.216 85.6094 125.847 85.5315 125.474 85.5319H24.5251C23.9216 85.532 23.3362 85.7368 22.8652 86.1127C22.3943 86.4886 22.0659 87.0131 21.9342 87.5997L21.7505 88.4106H123.358C124.041 88.4107 124.704 88.6427 125.237 89.0685C125.77 89.4944 126.141 90.0884 126.29 90.7528L128.785 101.911C129.86 106.717 126.189 111.277 121.247 111.277H16.5839L16.3675 112.235C16.3073 112.498 16.3162 112.772 16.3934 113.031C16.4705 113.289 16.6133 113.523 16.8079 113.71H133.189C133.324 113.58 133.434 113.427 133.515 113.259L127.452 86.4092Z" fill="white"/>
</g>
<path d="M132.089 115.117H80.1672C80.1322 115.117 80.0971 115.115 80.0622 115.111C80.0275 115.115 79.9927 115.117 79.9578 115.117H17.9087C17.5263 115.117 17.1489 115.031 16.8043 114.866C16.4597 114.701 16.1568 114.461 15.9179 114.164C15.6791 113.866 15.5105 113.519 15.4246 113.148C15.3387 112.777 15.3376 112.391 15.4216 112.02L20.9876 87.3841C21.1648 86.5822 21.6125 85.8649 22.256 85.3518C22.8996 84.8388 23.7002 84.5609 24.5245 84.5644H125.474C126.298 84.5611 127.098 84.8391 127.742 85.3521C128.385 85.8652 128.833 86.5823 129.01 87.3841L134.577 112.02C134.66 112.391 134.659 112.777 134.574 113.148C134.488 113.519 134.319 113.866 134.08 114.164C133.841 114.461 133.538 114.701 133.194 114.866C132.849 115.031 132.472 115.117 132.089 115.117ZM24.5245 86.495C24.1411 86.4934 23.7687 86.6226 23.4693 86.8612C23.1699 87.0999 22.9616 87.4335 22.879 87.8065L17.313 112.442C17.2928 112.531 17.293 112.624 17.3135 112.713C17.334 112.801 17.3744 112.885 17.4316 112.956C17.4888 113.027 17.5615 113.085 17.644 113.124C17.7266 113.164 17.8171 113.184 17.9087 113.184H79.9578C79.9927 113.184 80.0275 113.186 80.0622 113.19C80.0971 113.186 80.1322 113.184 80.1672 113.184H132.089C132.181 113.184 132.272 113.164 132.354 113.124C132.437 113.085 132.509 113.027 132.566 112.956C132.624 112.885 132.664 112.801 132.685 112.713C132.705 112.624 132.705 112.531 132.685 112.442L127.119 87.8065C127.036 87.4335 126.828 87.1 126.529 86.8614C126.229 86.6228 125.857 86.4935 125.474 86.495H24.5245Z" fill="#5B1B72"/>
<g opacity="0.35">
<path opacity="0.35" d="M103.367 90.5992C103.978 103.665 114.967 103.69 117.457 103.523V74.2447C106.679 73.6607 102.816 78.7901 103.367 90.5992Z" fill="#5B1B72"/>
</g>
<g opacity="0.3">
<path opacity="0.3" d="M54.4558 106.588C54.4558 106.588 51.1504 105.499 53.7054 103.483C56.2604 101.468 78.5177 100.677 81.4922 102.394C85.4782 104.693 80.3569 105.873 74.3782 106.381C68.3995 106.889 59.8841 107.707 54.4558 106.588Z" fill="white"/>
</g>
<g opacity="0.3">
<path opacity="0.3" d="M95.4379 106.599C95.4379 106.599 86.5527 106.616 87.5371 103.901C88.8762 100.204 94.3554 101.035 96.8324 101.942C100.034 103.113 99.8359 106.9 95.4379 106.599Z" fill="white"/>
</g>
<path d="M108.215 34.2053C108.126 34.2429 108.031 34.2628 107.934 34.2637C107.837 34.2646 107.742 34.2465 107.652 34.2105C107.562 34.1745 107.481 34.1212 107.412 34.0538C107.343 33.9863 107.288 33.906 107.251 33.8174L98.9686 14.3925C98.9309 14.304 98.911 14.2088 98.9102 14.1126C98.9094 14.0164 98.9276 13.921 98.9638 13.8318C99 13.7426 99.0535 13.6613 99.1213 13.5927C99.189 13.5241 99.2696 13.4695 99.3586 13.432C100.291 13.0376 101.293 12.83 102.306 12.8213C103.32 12.8125 104.325 13.0027 105.264 13.3809C106.204 13.7591 107.06 14.3179 107.782 15.0255C108.505 15.7331 109.081 16.5756 109.477 17.5049L112.301 24.1288C113.1 26.0048 113.118 28.1202 112.352 30.0097C111.586 31.8993 110.098 33.4084 108.215 34.2053Z" fill="white"/>
<path d="M107.926 34.4376C107.748 34.4373 107.573 34.3847 107.424 34.2865C107.276 34.1882 107.159 34.0486 107.089 33.885L98.807 14.4601C98.7125 14.2386 98.7101 13.9888 98.8005 13.7655C98.8908 13.5422 99.0665 13.3639 99.2888 13.2696C101.215 12.4571 103.386 12.4391 105.326 13.2193C107.266 13.9995 108.816 15.5144 109.636 17.4315L112.46 24.0554C113.276 25.9745 113.294 28.1375 112.51 30.0699C111.727 32.0023 110.206 33.5463 108.282 34.3631C108.169 34.4115 108.049 34.4368 107.926 34.4376ZM102.361 12.9933C101.351 12.9933 100.352 13.1967 99.4234 13.591C99.2864 13.649 99.1782 13.7588 99.1224 13.8963C99.0666 14.0337 99.0679 14.1876 99.1259 14.3242L107.408 33.749C107.437 33.8167 107.478 33.878 107.531 33.9296C107.584 33.9811 107.646 34.0217 107.714 34.0492C107.783 34.0767 107.856 34.0905 107.929 34.0897C108.003 34.0889 108.076 34.0737 108.144 34.0448C109.984 33.2662 111.439 31.7914 112.188 29.9446C112.937 28.0978 112.92 26.0302 112.139 24.1964L109.315 17.5725C108.735 16.2136 107.766 15.0549 106.53 14.2406C105.293 13.4263 103.843 12.9925 102.361 12.9933Z" fill="#5B1B72"/>
<g opacity="0.35">
<path opacity="0.35" d="M110.979 21.0195L112.304 24.1256C113.103 26.0027 113.122 28.1191 112.355 30.0096C111.588 31.9001 110.099 33.4099 108.215 34.2071C108.035 34.2826 107.833 34.284 107.652 34.211C107.471 34.1379 107.327 33.9964 107.25 33.8174L105.049 28.6541C105.153 28.7503 105.282 28.8146 105.421 28.8394C105.561 28.8642 105.704 28.8484 105.835 28.7939L106.297 28.5971C107.771 27.9742 109.013 26.9101 109.852 25.5523C110.69 24.1945 111.084 22.6103 110.979 21.0195Z" fill="#5B1B72"/>
</g>
<path d="M107.928 35.2298C107.593 35.2295 107.266 35.1312 106.987 34.9471C106.708 34.7631 106.489 34.5014 106.358 34.1946L98.0768 14.7698C97.9003 14.355 97.8962 13.8874 98.0654 13.4697C98.2347 13.0519 98.5634 12.7181 98.9794 12.5416C103.387 10.6761 108.497 12.7295 110.369 17.1227L113.193 23.7466C114.093 25.8587 114.115 28.2407 113.252 30.3685C112.39 32.4964 110.714 34.1958 108.594 35.0932C108.383 35.1827 108.157 35.2292 107.928 35.2298ZM99.9537 14.2334L108.05 33.2196C109.635 32.4832 110.871 31.1625 111.497 29.536C112.124 27.9094 112.092 26.104 111.408 24.5004L108.584 17.8765C107.898 16.2748 106.616 15.0004 105.007 14.321C103.397 13.6416 101.586 13.6102 99.9537 14.2334Z" fill="#5B1B72"/>
<path d="M34.995 40.6631C35.1746 40.5873 35.377 40.5856 35.5579 40.6583C35.7388 40.731 35.8834 40.8722 35.9599 41.051L44.2413 60.4771C44.279 60.5656 44.2989 60.6607 44.2998 60.7569C44.3006 60.8531 44.2825 60.9485 44.2463 61.0377C44.2102 61.1269 44.1567 61.2081 44.0891 61.2767C44.0214 61.3454 43.9408 61.4 43.8519 61.4377C42.9191 61.8322 41.9174 62.0399 40.9041 62.0487C39.8907 62.0576 38.8855 61.8675 37.9459 61.4892C37.0063 61.111 36.1507 60.5521 35.428 59.8444C34.7053 59.1367 34.1296 58.2941 33.7338 57.3647L30.9065 50.7427C30.5105 49.8135 30.3021 48.8156 30.2933 47.8061C30.2844 46.7966 30.4753 45.7953 30.8549 44.8593C31.2346 43.9233 31.7956 43.071 32.506 42.351C33.2163 41.631 34.0621 41.0574 34.995 40.6631Z" fill="white"/>
<path d="M40.8362 62.2265C39.2876 62.224 37.7738 61.7686 36.4826 60.9168C35.1914 60.065 34.1798 58.8542 33.5731 57.4348L30.7489 50.811C29.9309 48.8921 29.9115 46.7282 30.695 44.7952C31.4785 42.8622 33.0007 41.3183 34.9267 40.5032C35.1491 40.4091 35.3999 40.4068 35.624 40.4968C35.8481 40.5868 36.0272 40.7618 36.1218 40.9832L44.4033 60.4081C44.4503 60.5177 44.4752 60.6356 44.4764 60.7548C44.4777 60.8741 44.4553 60.9924 44.4105 61.103C44.3657 61.2136 44.2995 61.3143 44.2156 61.3994C44.1316 61.4844 44.0317 61.5522 43.9214 61.5986C42.946 62.0128 41.8966 62.2263 40.8362 62.2265ZM35.0632 40.8228C34.1516 41.2085 33.3252 41.7693 32.6312 42.4731C31.9371 43.177 31.389 44.0101 31.0182 44.925C30.6474 45.8398 30.461 46.8185 30.4699 47.8051C30.4787 48.7917 30.6825 49.7669 31.0697 50.675L33.8933 57.2995C34.6754 59.1333 36.1567 60.5825 38.0113 61.3285C39.866 62.0744 41.9421 62.056 43.7831 61.2772C43.8509 61.2485 43.9125 61.2068 43.9642 61.1545C44.0159 61.1021 44.0567 61.0401 44.0843 60.972C44.112 60.904 44.1258 60.8311 44.1252 60.7577C44.1246 60.6842 44.1094 60.6116 44.0806 60.5441L35.7991 41.1192C35.7409 40.9827 35.6307 40.8749 35.4927 40.8193C35.3548 40.7638 35.2003 40.765 35.0632 40.8228Z" fill="#5B1B72"/>
<g opacity="0.35">
<path opacity="0.35" d="M41.9453 55.0882L44.2424 60.477C44.3182 60.6562 44.3196 60.8581 44.2463 61.0384C44.173 61.2187 44.0309 61.3627 43.8512 61.4388C41.9682 62.2349 39.8448 62.2532 37.9483 61.4898C36.0517 60.7263 34.5372 59.2436 33.7381 57.3677L32.543 54.5768C33.6346 55.5768 34.9922 56.2423 36.4535 56.4937C37.9148 56.7452 39.4178 56.572 40.7829 55.9948L41.4943 55.6935C41.617 55.6421 41.7236 55.5588 41.803 55.4523C41.8823 55.3458 41.9315 55.22 41.9453 55.0882Z" fill="#5B1B72"/>
</g>
<path d="M40.8363 63.0191C39.1317 63.016 37.4655 62.5147 36.0443 61.5771C34.623 60.6396 33.5093 59.3071 32.8411 57.7449L30.0168 51.1205C29.5711 50.0745 29.3365 48.9512 29.3265 47.8149C29.3165 46.6786 29.5313 45.5515 29.9586 44.4979C30.386 43.4443 31.0174 42.4849 31.817 41.6744C32.6166 40.864 33.5686 40.2184 34.6186 39.7745C35.0349 39.6003 35.5034 39.5974 35.9218 39.7664C36.3403 39.9353 36.6745 40.2624 36.8516 40.6762L45.133 60.101C45.3091 60.5157 45.313 60.9831 45.1438 61.4006C44.9746 61.8182 44.6462 62.1519 44.2304 62.3286C43.1572 62.7838 42.0028 63.0187 40.8363 63.0191ZM35.1602 41.6468C33.5752 42.383 32.3391 43.7035 31.7125 45.33C31.0859 46.9565 31.1177 48.7618 31.8013 50.3654L34.6255 56.9899C35.3093 58.5934 36.5914 59.8697 38.2014 60.5498C39.8115 61.2299 41.6237 61.2606 43.2561 60.6355L35.1602 41.6468Z" fill="#5B1B72"/>
<g opacity="0.35">
<path opacity="0.35" d="M103.345 62.2753C102.687 63.2591 101.979 64.209 101.225 65.1214C96.9862 70.2637 91.3917 74.1263 85.0702 76.275C74.52 79.8843 63.4464 78.3428 54.602 72.9947C52.8529 71.9394 51.1976 70.7369 49.6543 69.4005C50.9778 68.3064 52.5926 67.6203 54.3014 67.426L64.3622 66.2649C65.9517 65.3877 67.6551 64.5411 69.4798 63.7303C79.7803 59.151 88.7801 58.7381 96.7835 62.5209L100.326 62.1105C101.334 61.9922 102.356 62.0479 103.345 62.2753Z" fill="#5B1B72"/>
</g>
<path d="M97.1357 62.8626C111.234 48.8178 111.234 26.0465 97.1357 12.0016C83.0372 -2.04324 60.1789 -2.04323 46.0804 12.0016C31.9819 26.0465 31.9819 48.8177 46.0804 62.8626C60.1789 76.9075 83.0372 76.9075 97.1357 62.8626Z" fill="white"/>
<path d="M71.5775 73.5887C66.0632 73.5833 60.6233 72.3206 55.6744 69.8974C46.9697 65.6572 40.4431 58.2945 37.2975 49.1642C30.8043 30.3177 40.9124 9.72114 59.8315 3.25267C78.7506 -3.2158 99.4253 6.85379 105.919 25.7003C112.413 44.5467 102.304 65.144 83.3851 71.6124C79.5861 72.9173 75.596 73.5851 71.5775 73.5887ZM71.5775 1.63916C67.6185 1.64092 63.6873 2.29733 59.9441 3.58164C41.2068 9.9887 31.1956 30.3867 37.6265 49.0533C44.0574 67.7199 64.5327 77.693 83.2713 71.286C102.01 64.8789 112.02 44.4803 105.59 25.8143C100.48 10.9831 86.5031 1.63853 71.5781 1.63853L71.5775 1.63916Z" fill="#5B1B72"/>
<g opacity="0.35">
<path opacity="0.35" d="M103.808 21.1599C104.564 22.6453 105.216 24.1815 105.758 25.7573C112.227 44.5443 102.188 65.0005 83.3304 71.4502C64.473 77.8999 43.9373 67.8942 37.463 49.1085C37.2743 48.5684 37.1032 48.0238 36.9453 47.4793C44.9525 63.251 63.6074 71.1225 80.8622 65.2236C99.175 58.9625 109.17 39.4857 103.808 21.1599Z" fill="#5B1B72"/>
</g>
<path d="M71.6398 74.3651C56.2387 74.3651 41.8182 64.7248 36.5459 49.4218C29.9099 30.1617 40.24 9.11397 59.573 2.50326C78.906 -4.10745 100.035 6.18333 106.671 25.4434C113.307 44.7034 102.977 65.7512 83.6437 72.3619C79.7812 73.6867 75.7248 74.3636 71.6398 74.3651ZM71.5769 2.43058C67.7059 2.43331 63.8623 3.07618 60.2027 4.33296C41.8805 10.599 32.0907 30.5446 38.3763 48.7977C41.4225 57.6397 47.7434 64.7711 56.177 68.8773C64.6107 72.9835 74.1376 73.5769 83.014 70.5384C101.336 64.2724 111.127 44.3262 104.84 26.0731C99.8411 11.5684 86.1735 2.4312 71.5788 2.4312L71.5769 2.43058Z" fill="#5B1B72"/>
<path d="M105.947 26.6677C108.341 33.289 108.406 40.2106 106.556 46.6207C105.168 51.4262 96.2092 62.18 82.2133 67.3445C69.2357 72.1337 54.8888 69.4687 50.7437 66.6484C45.2148 62.8887 40.8344 57.5137 38.4404 50.8923C32.102 33.3711 44.5876 20.6874 63.23 13.9952C81.8724 7.30303 99.6109 9.1465 105.947 26.6677Z" fill="#5B1B72"/>
<path d="M66.7312 70.9664C59.1612 70.9664 52.824 69.2357 50.1941 67.4461C44.2922 63.4308 39.9118 57.8196 37.5254 51.217C34.4137 42.6118 35.4786 34.7335 40.6905 27.8007C45.2351 21.7564 52.9146 16.6677 62.9006 13.0842C72.8866 9.5006 82.0594 8.54189 89.4294 10.3114C97.8819 12.3404 103.745 17.733 106.857 26.3382C109.244 32.9382 109.461 40.0427 107.486 46.8846C106.116 51.6312 97.3938 62.7698 82.5481 68.2476C77.2117 70.2189 71.7054 70.9664 66.7312 70.9664ZM81.6663 11.376C76.2115 11.376 70.0775 12.5616 63.5579 14.9007C53.6826 18.4448 31.5568 29.0125 39.3495 50.5635C41.5988 56.78 45.7244 62.0667 51.2855 65.8514C55.2343 68.5383 69.2189 71.1074 81.8726 66.4398C95.8949 61.2653 104.385 50.6343 105.621 46.3539C107.482 39.9042 107.279 33.2102 105.031 26.9955C102.155 19.0376 96.7522 14.0592 88.9734 12.1919C86.7152 11.6486 84.2678 11.3785 81.6663 11.3785V11.376Z" fill="#5B1B72"/>
<g opacity="0.7">
<path opacity="0.7" d="M95.1753 34.4982C97.6968 34.076 99.2667 30.9238 98.6819 27.4574C98.0971 23.991 95.579 21.5232 93.0576 21.9453C90.5362 22.3674 88.9663 25.5197 89.551 28.9861C90.1358 32.4525 92.6539 34.9203 95.1753 34.4982Z" fill="white"/>
</g>
<g opacity="0.7">
<path opacity="0.7" d="M93.154 44.912C94.5433 44.8733 95.6329 43.5346 95.5877 41.9219C95.5425 40.3091 94.3795 39.0331 92.9902 39.0718C91.6009 39.1104 90.5113 40.4492 90.5565 42.0619C90.6017 43.6746 91.7646 44.9506 93.154 44.912Z" fill="white"/>
</g>
<g opacity="0.35">
<path opacity="0.35" d="M93.4704 12.6775C99.0157 15.1213 103.4 19.6328 105.945 26.6671C108.34 33.2898 108.404 40.2113 106.556 46.6202C105.167 51.4263 96.2072 62.1801 82.2132 67.3459C77.2717 69.1712 72.1322 69.915 67.4316 69.9777C84.5002 63.2623 95.3908 50.101 97.1117 44.1407C99.461 36.0055 99.3761 27.2223 96.338 18.8189C95.5761 16.6873 94.6161 14.6312 93.4704 12.6775Z" fill="#5B1B72"/>
</g>
<path d="M35.5785 36.0048C35.443 36.0048 35.309 35.9762 35.1854 35.9209C34.9702 35.8256 34.7971 35.6555 34.6985 35.4425C34.5999 35.2294 34.5825 34.9878 34.6495 34.7629C37.4624 23.8925 47.2245 14.7346 61.4387 9.63593C75.5648 4.56731 88.8946 5.26096 98.0139 11.5377C98.2127 11.6661 98.3575 11.8626 98.4207 12.0901C98.4839 12.3176 98.4612 12.5603 98.3569 12.7722C98.2526 12.9842 98.074 13.1507 97.8547 13.2403C97.6355 13.3299 97.3909 13.3363 97.1673 13.2584C97.0833 13.229 97.0035 13.1888 96.9301 13.1387C88.3323 7.20908 75.6359 6.59438 62.096 11.4525C48.4819 16.34 39.1601 25.0217 36.5201 35.2755C36.5164 35.288 36.5132 35.3005 36.5094 35.3131C36.4968 35.3542 36.4819 35.3945 36.4648 35.434C36.3881 35.6042 36.2636 35.7486 36.1064 35.8499C35.9491 35.9512 35.7658 36.005 35.5785 36.0048Z" fill="#5B1B72"/>
<g opacity="0.7">
<path opacity="0.7" d="M49.7878 58.5972C49.7878 58.5972 38.0884 43.2666 44.9508 33.0234C51.8132 22.7803 65.2751 17.9799 65.2714 18.9524C65.2714 18.9524 51.6761 27.889 50.0898 41.7095C48.8664 52.3662 49.7878 58.5972 49.7878 58.5972Z" fill="white"/>
</g>
<path d="M52.7104 154.907L51.4826 155.095C51.3627 155.113 51.2519 155.169 51.1661 155.254C51.0804 155.34 51.0242 155.45 51.0058 155.57L50.8171 156.793L50.6284 155.57C50.6099 155.45 50.5537 155.34 50.468 155.255C50.3823 155.169 50.2715 155.113 50.1516 155.095L48.9238 154.907L50.1516 154.719C50.2715 154.7 50.3823 154.644 50.468 154.559C50.5537 154.474 50.6099 154.363 50.6284 154.244L50.8171 153.021L51.0058 154.244C51.0242 154.363 51.0804 154.474 51.1661 154.559C51.2519 154.645 51.3627 154.7 51.4826 154.719L52.7104 154.907Z" fill="#FFF2BD"/>
<path d="M45.1463 164.501L43.9946 164.679C43.8821 164.696 43.778 164.748 43.6975 164.828C43.6169 164.909 43.5641 165.012 43.5467 165.124L43.3687 166.272L43.1913 165.124C43.1739 165.012 43.1211 164.909 43.0406 164.828C42.9601 164.748 42.856 164.696 42.7435 164.679L41.5918 164.501L42.7435 164.324C42.856 164.307 42.9601 164.254 43.0406 164.174C43.1211 164.094 43.1739 163.991 43.1913 163.879L43.3687 162.731L43.5467 163.879C43.5641 163.991 43.6169 164.094 43.6975 164.174C43.778 164.254 43.8821 164.307 43.9946 164.324L45.1463 164.501Z" fill="#FFF2BD"/>
<path d="M40.6232 150.439L39.7647 150.571C39.6807 150.584 39.603 150.623 39.5429 150.683C39.4828 150.743 39.4435 150.82 39.4307 150.904L39.2979 151.759L39.1652 150.904C39.1524 150.82 39.1132 150.743 39.0533 150.683C38.9933 150.623 38.9157 150.584 38.8319 150.571L37.9727 150.439L38.8319 150.307C38.9156 150.294 38.9931 150.255 39.0531 150.195C39.113 150.135 39.1523 150.058 39.1652 149.975L39.2979 149.119L39.4307 149.975C39.4436 150.058 39.483 150.136 39.5431 150.195C39.6031 150.255 39.6808 150.294 39.7647 150.307L40.6232 150.439Z" fill="#FFF2BD"/>
<path d="M110.209 157.413L111.437 157.601C111.557 157.62 111.667 157.676 111.753 157.761C111.839 157.847 111.895 157.957 111.914 158.077L112.102 159.3L112.291 158.077C112.31 157.957 112.366 157.847 112.452 157.761C112.538 157.676 112.648 157.62 112.768 157.601L113.996 157.413L112.768 157.225C112.648 157.207 112.538 157.151 112.452 157.065C112.366 156.98 112.31 156.869 112.291 156.75L112.102 155.527L111.914 156.75C111.895 156.869 111.839 156.98 111.753 157.065C111.667 157.151 111.557 157.207 111.437 157.225L110.209 157.413Z" fill="#FFF2BD"/>
<path d="M96.8496 164.97L98.0012 165.147C98.1137 165.164 98.2177 165.217 98.2981 165.297C98.3786 165.377 98.4312 165.481 98.4485 165.593L98.6265 166.74L98.8044 165.593C98.8219 165.481 98.8746 165.377 98.955 165.297C99.0354 165.217 99.1393 165.164 99.2517 165.147L100.404 164.97L99.2517 164.793C99.1393 164.775 99.0354 164.723 98.955 164.642C98.8746 164.562 98.8219 164.459 98.8044 164.347L98.6265 163.199L98.4485 164.347C98.4312 164.459 98.3786 164.562 98.2981 164.643C98.2177 164.723 98.1137 164.775 98.0012 164.793L96.8496 164.97Z" fill="#FFF2BD"/>
<path d="M102.941 147.931L103.801 148.064C103.884 148.077 103.962 148.116 104.022 148.176C104.082 148.236 104.121 148.313 104.134 148.396L104.267 149.252L104.399 148.396C104.412 148.313 104.452 148.235 104.512 148.176C104.572 148.116 104.65 148.077 104.733 148.064L105.592 147.931L104.733 147.8C104.65 147.787 104.572 147.748 104.512 147.688C104.452 147.628 104.412 147.551 104.399 147.467L104.267 146.611L104.134 147.467C104.121 147.551 104.082 147.628 104.022 147.688C103.962 147.747 103.884 147.787 103.801 147.8L102.941 147.931Z" fill="#FFF2BD"/>
<path d="M41.4264 122.648L40.559 122.782C40.4744 122.795 40.3961 122.835 40.3356 122.895C40.2751 122.955 40.2355 123.033 40.2225 123.118L40.0885 123.982L39.9545 123.118C39.9413 123.033 39.9015 122.955 39.8409 122.895C39.7803 122.835 39.7021 122.795 39.6174 122.782L38.75 122.648L39.6174 122.515C39.702 122.502 39.7804 122.462 39.841 122.402C39.9016 122.342 39.9414 122.264 39.9545 122.18L40.0885 121.316L40.2225 122.18C40.2354 122.264 40.2751 122.342 40.3356 122.402C40.3961 122.463 40.4744 122.502 40.559 122.515L41.4264 122.648Z" fill="#FFF2BD"/>
<path d="M36.1898 130.699L35.2897 130.837C35.2017 130.851 35.1204 130.892 35.0575 130.955C34.9946 131.017 34.9534 131.098 34.94 131.186L34.801 132.083L34.6619 131.186C34.6485 131.098 34.6073 131.017 34.5444 130.955C34.4815 130.892 34.4002 130.851 34.3122 130.837L33.4121 130.699L34.3122 130.561C34.4002 130.547 34.4815 130.506 34.5444 130.443C34.6073 130.381 34.6485 130.3 34.6619 130.212L34.801 129.315L34.94 130.212C34.9534 130.3 34.9946 130.381 35.0575 130.443C35.1204 130.506 35.2017 130.547 35.2897 130.561L36.1898 130.699Z" fill="#FFF2BD"/>
<path d="M108.463 120.923L109.33 121.057C109.415 121.07 109.493 121.109 109.554 121.17C109.614 121.23 109.654 121.308 109.667 121.392L109.801 122.256L109.935 121.392C109.948 121.308 109.988 121.23 110.048 121.17C110.109 121.109 110.187 121.07 110.272 121.057L111.139 120.923L110.272 120.79C110.187 120.777 110.109 120.737 110.048 120.677C109.988 120.616 109.948 120.538 109.935 120.454L109.801 119.59L109.667 120.454C109.654 120.538 109.614 120.616 109.554 120.677C109.493 120.737 109.415 120.777 109.33 120.79L108.463 120.923Z" fill="#FFF2BD"/>
<path d="M113.699 128.972L114.599 129.11C114.687 129.124 114.768 129.165 114.831 129.228C114.894 129.29 114.935 129.371 114.949 129.459L115.088 130.356L115.227 129.459C115.241 129.371 115.282 129.29 115.345 129.228C115.408 129.165 115.489 129.124 115.577 129.11L116.477 128.972L115.577 128.834C115.489 128.82 115.407 128.779 115.345 128.716C115.282 128.654 115.241 128.573 115.227 128.485L115.088 127.588L114.949 128.485C114.936 128.573 114.894 128.654 114.832 128.716C114.769 128.779 114.687 128.82 114.599 128.834L113.699 128.972Z" fill="#FFF2BD"/>
<path d="M69.4902 166.191L70.5595 166.356C70.6641 166.372 70.7608 166.421 70.8356 166.496C70.9105 166.57 70.9596 166.667 70.9759 166.771L71.1414 167.836L71.3068 166.771C71.3231 166.667 71.3723 166.57 71.4471 166.496C71.5219 166.421 71.6186 166.372 71.7232 166.356L72.7925 166.191L71.7232 166.027C71.6186 166.01 71.5219 165.961 71.4471 165.887C71.3723 165.812 71.3231 165.716 71.3068 165.612L71.1414 164.543L70.9759 165.612C70.9596 165.716 70.9105 165.812 70.8356 165.887C70.7608 165.961 70.6641 166.01 70.5595 166.027L69.4902 166.191Z" fill="#FFF2BD"/>
<path d="M78.9258 160.239L79.9951 160.403C80.0997 160.42 80.1964 160.469 80.2712 160.543C80.346 160.618 80.3952 160.714 80.4115 160.818L80.5769 161.883L80.7423 160.818C80.7587 160.714 80.8078 160.618 80.8826 160.543C80.9575 160.469 81.0542 160.42 81.1587 160.403L82.228 160.239L81.1587 160.074C81.0542 160.057 80.9575 160.009 80.8826 159.934C80.8078 159.859 80.7587 159.763 80.7423 159.659L80.5769 158.591L80.4115 159.659C80.3952 159.763 80.346 159.859 80.2712 159.934C80.1964 160.009 80.0997 160.057 79.9951 160.074L78.9258 160.239Z" fill="#FFF2BD"/>
<path d="M114.941 56.6052C114.942 55.9205 114.806 55.2425 114.543 54.6098C114.28 53.9772 113.895 53.4024 113.409 52.9182C112.923 52.434 112.346 52.05 111.711 51.788C111.076 51.526 110.395 51.3912 109.708 51.3912H40.3551C39.6677 51.3912 38.9871 51.526 38.352 51.788C37.717 52.05 37.14 52.434 36.654 52.9182C36.1679 53.4024 35.7824 53.9772 35.5194 54.6098C35.2564 55.2425 35.1211 55.9205 35.1212 56.6052V161.862C35.1212 161.862 34.9953 175.367 46.4319 175.367C58.3571 175.367 61.1184 164.599 61.6273 161.862H114.941V56.6052Z" fill="white"/>
<path d="M46.4321 176.621C43.0411 176.621 40.2402 175.533 38.1079 173.389C33.8741 169.132 33.8609 162.236 33.8634 161.86V56.6052C33.8654 54.8906 34.55 53.2468 35.767 52.0344C36.9841 50.822 38.6342 50.14 40.3553 50.138H109.708C111.429 50.14 113.079 50.822 114.296 52.0344C115.513 53.2468 116.198 54.8906 116.2 56.6052V163.115H62.6434C62.2169 164.864 61.2753 167.746 59.3235 170.384C57.9523 172.237 56.2842 173.705 54.3663 174.743C52.0654 175.989 49.3953 176.621 46.4321 176.621ZM40.3553 52.6444C39.3011 52.6454 38.2904 53.063 37.545 53.8056C36.7996 54.5482 36.3804 55.5551 36.3794 56.6052V161.875C36.3794 161.938 36.3794 168.102 39.9018 171.635C41.5435 173.281 43.7387 174.115 46.4302 174.115C57.2277 174.115 59.8443 164.563 60.389 161.635L60.5777 160.61H113.684V56.6052C113.683 55.5551 113.264 54.5482 112.518 53.8056C111.773 53.063 110.762 52.6454 109.708 52.6444H40.3553Z" fill="#5B1B72"/>
<path d="M117.579 175.205C124.306 175.205 125.244 170.544 125.244 170.544C125.244 170.544 126.704 162.301 126.565 158.591C126.426 154.88 123.204 154.907 123.204 154.907C123.204 154.907 71.0998 154.657 60.927 154.907C50.7541 155.158 59.2746 175.367 46.4316 175.367L117.579 175.205Z" fill="white"/>
<path d="M46.4336 176.621V174.114H46.4908C51.7675 174.089 52.6871 170.331 53.5702 164.155C53.9307 161.633 54.271 159.25 55.2019 157.33C56.3523 154.956 58.2695 153.72 60.9006 153.655C70.976 153.404 122.694 153.652 123.216 153.655C123.999 153.678 124.765 153.887 125.45 154.264C126.483 154.838 127.733 156.046 127.827 158.545C127.969 162.344 126.548 170.42 126.488 170.764L126.482 170.792C126.451 170.946 126.142 172.341 124.865 173.724C123.714 174.972 121.517 176.459 117.588 176.46L46.4934 176.623H46.4393L46.4336 176.621ZM81.5514 156.05C72.3409 156.05 64.3167 156.077 60.9572 156.161C57.4153 156.248 56.787 159.389 56.0554 164.508C55.6566 167.295 55.2447 170.178 53.986 172.466C53.6658 173.054 53.2774 173.603 52.8287 174.101L117.579 173.953C123.003 173.953 123.94 170.583 124.009 170.299C124.102 169.768 125.436 162.067 125.307 158.639C125.268 157.586 124.933 156.884 124.285 156.491C123.956 156.299 123.587 156.187 123.207 156.162H123.191H123.198C122.852 156.16 99.8591 156.05 81.5514 156.05Z" fill="#5B1B72"/>
<path d="M26.4961 81.0542L28.446 80.6387L34.414 79.3667L34.0944 71.3066C33.8305 70.8427 33.4185 70.4799 32.9239 70.2759C32.2502 70.0033 31.2564 69.9745 29.8782 70.7772C26.4961 72.7585 26.4961 81.0542 26.4961 81.0542Z" fill="white"/>
<g opacity="0.35">
<path opacity="0.35" d="M28.4473 80.6387L34.4152 79.3667L34.0957 71.3066C33.8317 70.8427 33.4197 70.4799 32.9251 70.2759C32.5392 70.4016 32.1686 70.5697 31.82 70.7772C28.8945 72.4922 28.4982 78.9369 28.4473 80.6387Z" fill="#5B1B72"/>
</g>
<path d="M35.3825 79.3681C35.3825 79.3555 35.3825 79.343 35.3825 79.3299L35.0636 71.2679C35.0583 71.1315 35.0237 70.9978 34.9624 70.8757C34.5426 70.1052 33.8347 69.5308 32.9923 69.2772C31.9117 68.957 30.6996 69.1826 29.3882 69.9489C25.6362 72.142 25.5273 80.1476 25.5273 81.053C25.5272 81.197 25.5594 81.3392 25.6216 81.4691C25.6838 81.5991 25.7744 81.7135 25.8868 81.8041C25.9992 81.8946 26.1304 81.959 26.271 81.9924C26.4116 82.0258 26.5579 82.0275 26.6992 81.9973L34.6177 80.3124C34.8343 80.2657 35.0283 80.1466 35.1675 79.9747C35.3066 79.8029 35.3825 79.5888 35.3825 79.3681ZM33.1364 71.6069L33.4131 78.5936L27.5068 79.8506C27.6678 77.2188 28.3509 72.7931 30.3681 71.6144C31.1858 71.137 31.9016 70.969 32.4388 71.1276C32.7147 71.2134 32.9579 71.3805 33.1364 71.6069Z" fill="#5B1B72"/>
<path d="M31.0803 102.768C31.0803 102.768 42.7168 104.414 43.2892 91.3862C43.7566 80.7915 40.4191 76.2812 31.0803 76.9629C25.057 77.4016 25.5035 89.4399 25.5035 89.4399C25.5035 89.4399 25.7338 101.952 31.0803 102.768Z" fill="white"/>
<path d="M44.301 89.5371C44.301 84.31 43.2241 80.8172 40.9597 78.6266C38.7915 76.5287 35.5364 75.669 31.0089 75.9999C24.1333 76.5011 24.5163 88.9463 24.5346 89.4757C24.5591 90.8217 24.9516 102.809 30.9328 103.722H30.9435C31.1567 103.753 36.2126 104.425 40.0848 101.223C42.6637 99.0923 44.0651 95.7963 44.2576 91.4276C44.2865 90.7743 44.301 90.1441 44.301 89.5371ZM26.4687 89.0653C26.4687 87.1585 26.7115 78.25 31.1504 77.9261C35.0936 77.6378 37.8606 78.3202 39.6092 80.012C41.7107 82.0441 42.5725 85.6465 42.3209 91.3443C42.1535 95.1378 40.9893 97.9581 38.8613 99.7271C35.7063 102.348 31.3819 101.833 31.2196 101.812C27.5267 101.236 26.531 92.4553 26.4738 89.4218C26.4719 89.4087 26.4687 89.2821 26.4687 89.0653Z" fill="#5B1B72"/>
<g opacity="0.35">
<path opacity="0.35" d="M43.2879 91.3851C43.7559 80.7923 40.4171 76.2838 31.079 76.9618C30.7124 76.9881 30.3508 77.062 30.0034 77.1817C35.6311 78.3247 37.6961 82.9045 37.3218 91.3851C36.9998 98.7258 33.1629 101.406 29.877 102.351C30.2481 102.563 30.6557 102.705 31.079 102.769C31.079 102.769 42.7136 104.414 43.2879 91.3851Z" fill="#5B1B72"/>
</g>
<path d="M122.338 81.0542L120.388 80.6387L114.42 79.3667L114.74 71.3066C115.004 70.8426 115.416 70.4798 115.91 70.2759C116.584 70.0033 117.578 69.9745 118.956 70.7772C122.338 72.7585 122.338 81.0542 122.338 81.0542Z" fill="white"/>
<g opacity="0.35">
<path opacity="0.35" d="M120.388 80.6387L114.42 79.3667L114.74 71.3066C115.004 70.8426 115.416 70.4798 115.91 70.2759C116.296 70.4016 116.667 70.5697 117.015 70.7772C119.943 72.4922 120.337 78.9369 120.388 80.6387Z" fill="#5B1B72"/>
</g>
<path d="M113.451 79.3681C113.451 79.3555 113.451 79.343 113.451 79.3299L113.771 71.2679C113.776 71.1315 113.81 70.9978 113.871 70.8757C114.291 70.1054 114.999 69.531 115.841 69.2772C116.922 68.957 118.135 69.1826 119.446 69.9489C123.198 72.142 123.306 80.1476 123.306 81.053C123.306 81.197 123.274 81.3392 123.212 81.4691C123.15 81.5991 123.059 81.7135 122.947 81.8041C122.835 81.8946 122.703 81.959 122.563 81.9924C122.422 82.0258 122.276 82.0275 122.135 81.9973L114.217 80.3124C114 80.266 113.806 80.1469 113.667 79.9751C113.527 79.8033 113.451 79.589 113.451 79.3681ZM115.695 71.6069L115.419 78.5936L121.325 79.8506C121.164 77.2188 120.482 72.7931 118.464 71.6144C117.646 71.137 116.93 70.969 116.393 71.1276C116.117 71.2134 115.874 71.3805 115.695 71.6069Z" fill="#5B1B72"/>
<path d="M117.755 102.768C117.755 102.768 106.119 104.414 105.546 91.3862C105.079 80.7915 108.417 76.2812 117.755 76.9629C123.779 77.4016 123.332 89.4399 123.332 89.4399C123.332 89.4399 123.102 101.952 117.755 102.768Z" fill="white"/>
<path d="M104.535 89.5371C104.535 84.31 105.611 80.8172 107.876 78.6266C110.044 76.5287 113.299 75.669 117.827 75.9999C124.703 76.5011 124.319 88.9463 124.301 89.4757C124.276 90.8217 123.884 102.809 117.903 103.722H117.892C117.679 103.753 112.623 104.425 108.751 101.223C106.172 99.0923 104.771 95.7963 104.578 91.4276C104.55 90.7743 104.536 90.1441 104.535 89.5371ZM122.367 89.0653C122.367 87.1585 122.124 78.25 117.685 77.9261C113.742 77.6378 110.975 78.3202 109.226 80.012C107.125 82.0441 106.264 85.6465 106.515 91.3443C106.682 95.1378 107.846 97.9581 109.975 99.7271C113.131 102.348 117.455 101.833 117.617 101.812C121.31 101.236 122.305 92.4553 122.362 89.4218C122.364 89.4087 122.364 89.2821 122.364 89.0653H122.367Z" fill="#5B1B72"/>
<g opacity="0.35">
<path opacity="0.35" d="M105.546 91.3851C105.079 80.7923 108.417 76.2838 117.755 76.9618C118.122 76.9881 118.484 77.062 118.831 77.1817C113.203 78.3247 111.138 82.9045 111.513 91.3851C111.835 98.7258 115.672 101.406 118.957 102.351C118.586 102.563 118.179 102.705 117.755 102.769C117.755 102.769 106.121 104.414 105.546 91.3851Z" fill="#5B1B72"/>
</g>
<path d="M94.789 130.852H57.0269C55.0381 130.85 53.1314 130.062 51.7251 128.661C50.3188 127.26 49.5277 125.361 49.5254 123.38V112.486C49.5254 111.987 49.7242 111.509 50.0781 111.156C50.432 110.804 50.9119 110.606 51.4124 110.606C51.9129 110.606 52.3928 110.804 52.7467 111.156C53.1006 111.509 53.2994 111.987 53.2994 112.486V123.38C53.3006 124.364 53.6937 125.308 54.3925 126.004C55.0913 126.7 56.0387 127.091 57.0269 127.092H94.789C95.7772 127.091 96.7246 126.7 97.4234 126.004C98.1222 125.308 98.5153 124.364 98.5165 123.38V112.486C98.5165 111.987 98.7153 111.509 99.0692 111.156C99.423 110.804 99.903 110.606 100.403 110.606C100.904 110.606 101.384 110.804 101.738 111.156C102.092 111.509 102.291 111.987 102.291 112.486V123.38C102.288 125.361 101.497 127.26 100.091 128.661C98.6844 130.062 96.7778 130.85 94.789 130.852Z" fill="#5B1B72"/>
<path d="M75.9065 122.609C75.4061 122.609 74.9261 122.411 74.5722 122.058C74.2183 121.706 74.0195 121.228 74.0195 120.729V98.1989C74.0195 97.7004 74.2183 97.2222 74.5722 96.8697C74.9261 96.5171 75.4061 96.3191 75.9065 96.3191C76.407 96.3191 76.887 96.5171 77.2408 96.8697C77.5947 97.2222 77.7935 97.7004 77.7935 98.1989V120.729C77.7935 121.228 77.5947 121.706 77.2408 122.058C76.887 122.411 76.407 122.609 75.9065 122.609Z" fill="#5B1B72"/>
<path d="M86.846 106.627C86.3613 106.627 85.8952 106.441 85.5446 106.108L76.1486 97.187L76.1322 97.1707C75.9926 97.0316 75.8039 96.9525 75.6065 96.9504C75.4091 96.9482 75.2187 97.0233 75.0761 97.1594L66.5978 106.042C66.4279 106.224 66.2234 106.371 65.9961 106.474C65.7688 106.577 65.5233 106.634 65.2738 106.642C65.0242 106.65 64.7756 106.608 64.5424 106.519C64.3091 106.431 64.0958 106.297 63.9149 106.125C63.734 105.954 63.589 105.748 63.4883 105.521C63.3876 105.293 63.3333 105.048 63.3285 104.799C63.3236 104.551 63.3684 104.304 63.4601 104.072C63.5519 103.841 63.6888 103.63 63.8629 103.452L72.3783 94.5289L72.3953 94.5126C73.2415 93.6693 74.3884 93.194 75.5853 93.1906C76.7822 93.1872 77.9318 93.656 78.7828 94.4944L88.1468 103.386C88.4198 103.645 88.6087 103.98 88.6889 104.347C88.7692 104.714 88.7371 105.097 88.597 105.445C88.4569 105.794 88.215 106.093 87.9027 106.304C87.5904 106.514 87.2219 106.627 86.8447 106.627H86.846Z" fill="#5B1B72"/>
<path d="M95.8463 79.3104L95.1871 81.246C95.1408 81.3821 95.1284 81.5273 95.151 81.6692C95.1736 81.8111 95.2304 81.9454 95.3167 82.0606L96.5438 83.6985C96.643 83.831 96.703 83.9885 96.717 84.1531C96.731 84.3178 96.6985 84.4831 96.6232 84.6303C96.5479 84.7775 96.4328 84.9009 96.2908 84.9863C96.1489 85.0718 95.9857 85.1161 95.8199 85.114L93.7687 85.0883C93.6243 85.0866 93.4817 85.12 93.3531 85.1855C93.2246 85.251 93.114 85.3467 93.0309 85.4643L91.8465 87.1329C91.7503 87.267 91.6184 87.3718 91.4658 87.4353C91.3131 87.4989 91.1457 87.5188 90.9823 87.4927C90.8189 87.4667 90.6661 87.3958 90.5409 87.2879C90.4158 87.1801 90.3234 87.0396 90.274 86.8823L89.6651 84.9311C89.6224 84.7938 89.5468 84.669 89.4449 84.5674C89.343 84.4658 89.2178 84.3903 89.0801 84.3477L87.1208 83.7411C86.9627 83.6921 86.8215 83.6001 86.7131 83.4754C86.6047 83.3508 86.5334 83.1985 86.5073 83.0356C86.4811 82.8728 86.5011 82.7059 86.5651 82.5537C86.629 82.4016 86.7343 82.2703 86.8692 82.1746L88.5436 80.9947C88.6616 80.912 88.7576 80.8019 88.8233 80.6739C88.8891 80.546 88.9226 80.4041 88.921 80.2603L88.8946 78.2163C88.8925 78.0511 88.9369 77.8886 89.0227 77.7472C89.1085 77.6058 89.2323 77.491 89.3801 77.416C89.5279 77.341 89.6938 77.3087 89.8591 77.3226C90.0244 77.3366 90.1825 77.3964 90.3155 77.4951L91.9597 78.7176C92.0753 78.8035 92.2101 78.8602 92.3526 78.8826C92.495 78.9051 92.6408 78.8928 92.7774 78.8467L94.7204 78.19C94.8771 78.1378 95.0453 78.1301 95.2061 78.1678C95.367 78.2055 95.5141 78.2871 95.631 78.4034C95.748 78.5198 95.83 78.6662 95.868 78.8264C95.9061 78.9866 95.8985 79.1542 95.8463 79.3104Z" fill="#F35307"/>
<path d="M91.1259 88.7583C91.0113 88.7583 90.8969 88.7493 90.7838 88.7313C90.3875 88.6704 90.0165 88.4995 89.7132 88.2381C89.4099 87.9768 89.1867 87.6357 89.0691 87.2538L88.5181 85.4868L86.7437 84.9372C86.3611 84.8186 86.0196 84.5958 85.7575 84.2939C85.4954 83.9921 85.3234 83.6232 85.2608 83.229C85.1982 82.8348 85.2475 82.4311 85.4031 82.0633C85.5588 81.6956 85.8146 81.3786 86.1417 81.1481L87.6582 80.0798L87.6343 78.2294C87.6293 77.8304 87.7365 77.4379 87.9437 77.0963C88.1509 76.7548 88.4499 76.4778 88.8068 76.2966C89.1638 76.1155 89.5644 76.0374 89.9636 76.0712C90.3627 76.1051 90.7444 76.2494 91.0655 76.488L92.5544 77.5946L94.3156 77C94.695 76.8719 95.1028 76.8521 95.4929 76.9429C95.8831 77.0336 96.2399 77.2312 96.5232 77.5134C96.8065 77.7956 97.0048 78.1511 97.0959 78.5397C97.187 78.9283 97.1671 79.3346 97.0386 79.7126L96.4416 81.4671L97.5531 82.9503C97.7912 83.2683 97.9358 83.6459 97.9708 84.0411C98.0058 84.4363 97.9298 84.8333 97.7513 85.188C97.5729 85.5426 97.2989 85.8408 96.9601 86.0492C96.6213 86.2577 96.231 86.3682 95.8328 86.3684H95.8045L93.947 86.3446L92.8746 87.8553C92.6775 88.1349 92.4156 88.3629 92.1112 88.5201C91.8068 88.6772 91.4688 88.759 91.1259 88.7583ZM88.2042 82.7648L89.4496 83.1501C89.7821 83.2532 90.0844 83.4352 90.3306 83.6805C90.5768 83.9258 90.7595 84.227 90.863 84.5581L91.2499 85.7988L92.0047 84.738C92.203 84.4585 92.4658 84.2305 92.771 84.0732C93.0761 83.9158 93.4147 83.8337 93.7583 83.8338H93.7854L95.0893 83.8501L94.3093 82.8093C94.1008 82.5316 93.9632 82.2076 93.9084 81.8651C93.8536 81.5227 93.8832 81.1721 93.9948 80.8436L94.4137 79.6129L93.179 80.0303C92.8492 80.1414 92.4971 80.171 92.1533 80.1164C91.8094 80.0618 91.484 79.9247 91.2052 79.717L90.1598 78.94L90.1761 80.2389C90.1808 80.5857 90.1007 80.9285 89.9427 81.2376C89.7847 81.5466 89.5535 81.8127 89.2691 82.0128L88.2042 82.7648Z" fill="#5B1B72"/>
<path d="M62.994 79.2996L62.3354 81.2352C62.2888 81.3712 62.2763 81.5165 62.2989 81.6585C62.3215 81.8004 62.3785 81.9347 62.465 82.0498L63.6916 83.6877C63.7908 83.8201 63.8508 83.9776 63.8649 84.1422C63.8789 84.3069 63.8465 84.4722 63.7711 84.6194C63.6958 84.7666 63.5806 84.8899 63.4386 84.9753C63.2966 85.0607 63.1334 85.1048 62.9676 85.1026L60.9164 85.0763C60.7721 85.0746 60.6296 85.108 60.5012 85.1735C60.3727 85.239 60.2622 85.3347 60.1792 85.4522L58.9942 87.1203C58.8981 87.2546 58.7663 87.3595 58.6136 87.4232C58.4609 87.4869 58.2933 87.5069 58.1299 87.4808C57.9664 87.4547 57.8135 87.3837 57.6883 87.2757C57.5632 87.1677 57.4708 87.0271 57.4217 86.8696L56.8128 84.9177C56.77 84.7807 56.6943 84.656 56.5924 84.5545C56.4905 84.453 56.3654 84.3776 56.2278 84.335L54.2685 83.7284C54.1105 83.6792 53.9695 83.5871 53.8613 83.4625C53.753 83.3378 53.6818 83.1855 53.6557 83.0228C53.6296 82.86 53.6495 82.6932 53.7133 82.5412C53.7771 82.3891 53.8822 82.2577 54.0168 82.1619L55.6919 80.982C55.81 80.8992 55.906 80.789 55.9718 80.661C56.0375 80.5329 56.071 80.3908 56.0693 80.247L56.0429 78.2036C56.0408 78.0384 56.0852 77.8759 56.171 77.7345C56.2568 77.593 56.3806 77.4784 56.5284 77.4033C56.6762 77.3283 56.8422 77.296 57.0074 77.3099C57.1727 77.3239 57.3308 77.3837 57.4638 77.4824L59.108 78.7049C59.2237 78.7907 59.3585 78.8473 59.5009 78.8698C59.6433 78.8923 59.7891 78.88 59.9257 78.834L61.8681 78.1773C62.025 78.1249 62.1935 78.1171 62.3546 78.1549C62.5157 78.1926 62.663 78.2744 62.78 78.391C62.897 78.5076 62.979 78.6544 63.0168 78.815C63.0546 78.9755 63.0467 79.1433 62.994 79.2996Z" fill="#F35307"/>
<path d="M58.273 88.7477C58.1584 88.7478 58.044 88.7387 57.9308 88.7208C57.5346 88.6598 57.1637 88.4889 56.8606 88.2275C56.5574 87.9662 56.3343 87.6251 56.2168 87.2433L55.6652 85.4756L53.8914 84.9267C53.5086 84.8084 53.1668 84.5857 52.9045 84.2839C52.6422 83.982 52.47 83.6131 52.4073 83.2188C52.3446 82.8245 52.3939 82.4206 52.5497 82.0528C52.7055 81.685 52.9615 81.368 53.2888 81.1376L54.8053 80.0723L54.7814 78.222C54.7763 77.8229 54.8834 77.4303 55.0905 77.0887C55.2977 76.747 55.5966 76.4699 55.9536 76.2887C56.3106 76.1075 56.7113 76.0294 57.1105 76.0632C57.5097 76.097 57.8915 76.2414 58.2126 76.48L59.7015 77.5835L61.4627 76.9888C61.8421 76.8607 62.2499 76.841 62.64 76.9317C63.0301 77.0224 63.387 77.22 63.6702 77.5022C63.9535 77.7844 64.1519 78.1399 64.243 78.5285C64.334 78.9172 64.3142 79.3234 64.1856 79.7014L63.5893 81.4559L64.7001 82.9391C64.9385 83.257 65.0833 83.6347 65.1184 84.03C65.1535 84.4252 65.0776 84.8224 64.8991 85.1771C64.7206 85.5318 64.4465 85.8301 64.1075 86.0385C63.7686 86.2469 63.3781 86.3573 62.9798 86.3572H62.9521L61.0947 86.3334L60.0216 87.8442C59.8246 88.1238 59.5628 88.3519 59.2584 88.5092C58.9539 88.6665 58.6159 88.7484 58.273 88.7477ZM55.3519 82.7542L56.5973 83.1396C56.9298 83.2426 57.2321 83.4246 57.4782 83.6699C57.7243 83.9151 57.9068 84.2164 58.0101 84.5476L58.3975 85.7883L59.1523 84.7274C59.3534 84.4444 59.6204 84.2142 59.9305 84.0567C60.2406 83.8992 60.5844 83.8191 60.9324 83.8232L62.237 83.8401L61.457 82.7987C61.2484 82.5209 61.1108 82.1968 61.056 81.8543C61.0012 81.5117 61.0309 81.161 61.1425 80.8324L61.5614 79.6024L60.3261 80.0197C59.9962 80.1309 59.6442 80.1604 59.3003 80.1058C58.9565 80.0513 58.6311 79.9142 58.3522 79.7064L57.3068 78.9294L57.3238 80.2284C57.3282 80.5752 57.2478 80.9179 57.0897 81.2269C56.9316 81.5359 56.7005 81.802 56.4162 82.0023L55.3519 82.7542Z" fill="#5B1B72"/>
<path d="M77.301 68.416L79.0264 71.9C79.1478 72.1447 79.3272 72.3565 79.5489 72.5169C79.7707 72.6774 80.0283 72.7817 80.2995 72.8211L84.1584 73.3794C85.5422 73.5799 86.0983 75.2774 85.095 76.2517L82.3029 78.9618C82.1065 79.1522 81.9596 79.3874 81.8749 79.647C81.7901 79.9066 81.7702 80.1829 81.8166 80.4519L82.4758 84.2811C82.7124 85.6565 81.2631 86.7054 80.0227 86.0556L76.5714 84.2497C76.329 84.1226 76.0591 84.0561 75.7852 84.0561C75.5112 84.0561 75.2413 84.1226 74.9989 84.2497L71.5469 86.0569C70.3072 86.7067 68.858 85.6577 69.0938 84.2823L69.753 80.4531C69.7995 80.1841 69.7795 79.9078 69.6948 79.6482C69.6101 79.3886 69.4632 79.1535 69.2668 78.9631L66.4747 76.2517C65.4683 75.2774 66.0249 73.5799 67.4113 73.3794L71.2702 72.8211C71.5414 72.7817 71.799 72.6774 72.0208 72.5169C72.2425 72.3565 72.4218 72.1447 72.5433 71.9L74.2686 68.416C74.8895 67.1647 76.6809 67.1647 77.301 68.416Z" fill="#F35307"/>
<path d="M80.8145 87.507C80.3352 87.5063 79.8633 87.3895 79.4395 87.1667L75.9881 85.359C75.926 85.3264 75.857 85.3094 75.7868 85.3094C75.7167 85.3094 75.6476 85.3264 75.5856 85.359L72.1342 87.1667C71.6473 87.4214 71.0986 87.5353 70.5501 87.4956C70.0015 87.456 69.4751 87.2643 69.0302 86.9423C68.5853 86.6202 68.2397 86.1806 68.0323 85.6732C67.825 85.1658 67.7643 84.6107 67.857 84.0707L68.5162 80.2415C68.5278 80.1726 68.5224 80.1019 68.5005 80.0355C68.4785 79.9692 68.4408 79.9091 68.3904 79.8605L65.5982 77.1492C65.2033 76.7667 64.9238 76.2816 64.7914 75.749C64.6591 75.2163 64.6792 74.6574 64.8494 74.1356C65.0197 73.6137 65.3333 73.1498 65.7547 72.7965C66.1761 72.4431 66.6884 72.2144 67.2336 72.1363L71.0926 71.5774C71.1619 71.5674 71.2278 71.5407 71.2845 71.4997C71.3411 71.4586 71.3869 71.4044 71.4178 71.3418L73.1438 67.8585C73.3854 67.366 73.7613 66.9513 74.2285 66.6617C74.6957 66.3721 75.2353 66.2195 75.7856 66.2211C76.3358 66.2195 76.8754 66.3721 77.3426 66.6617C77.8098 66.9513 78.1858 67.366 78.4274 67.8585L80.1534 71.3424C80.1844 71.4049 80.2302 71.4589 80.2868 71.4999C80.3435 71.5408 80.4093 71.5674 80.4786 71.5774L84.3375 72.1363C84.8827 72.2144 85.3951 72.4431 85.8165 72.7965C86.2379 73.1498 86.5515 73.6137 86.7217 74.1356C86.892 74.6574 86.912 75.2163 86.7797 75.749C86.6474 76.2816 86.3679 76.7667 85.9729 77.1492L83.1808 79.8605C83.1304 79.9091 83.0926 79.9692 83.0707 80.0355C83.0488 80.1019 83.0434 80.1726 83.055 80.2415L83.7142 84.0707C83.7857 84.492 83.7644 84.9238 83.6516 85.3361C83.5389 85.7484 83.3374 86.1313 83.0612 86.4582C82.785 86.7852 82.4407 87.0483 82.0522 87.2294C81.6637 87.4105 81.2402 87.5052 80.8113 87.507H80.8145ZM75.7868 82.803C76.2648 82.8029 76.7356 82.9186 77.1587 83.1402L80.61 84.9479C80.6815 84.9856 80.7621 85.0026 80.8427 84.9969C80.9233 84.9913 81.0008 84.9633 81.0663 84.9161C81.1317 84.8689 81.1826 84.8043 81.2132 84.7298C81.2437 84.6552 81.2526 84.5736 81.239 84.4943L80.5798 80.6651C80.499 80.1958 80.5339 79.714 80.6817 79.2612C80.8294 78.8084 81.0854 78.3982 81.4277 78.0659L84.2199 75.3539C84.2777 75.2979 84.3185 75.2268 84.3379 75.1488C84.3572 75.0708 84.3542 74.9889 84.3293 74.9125C84.3044 74.8361 84.2584 74.7681 84.1968 74.7164C84.1351 74.6646 84.0601 74.6311 83.9802 74.6195L80.1213 74.0612C79.6483 73.9927 79.1991 73.8107 78.8124 73.5308C78.4257 73.2509 78.1131 72.8816 77.9015 72.4546L76.1756 68.9707C76.1399 68.8987 76.0847 68.8381 76.0162 68.7957C75.9477 68.7533 75.8687 68.7308 75.7881 68.7308C75.7075 68.7308 75.6285 68.7533 75.56 68.7957C75.4915 68.8381 75.4363 68.8987 75.4006 68.9707L73.6746 72.4546C73.4631 72.8816 73.1505 73.2509 72.7638 73.5308C72.3771 73.8107 71.9279 73.9927 71.4549 74.0612L67.596 74.6195C67.5161 74.6311 67.4411 74.6646 67.3794 74.7164C67.3177 74.7681 67.2718 74.8361 67.2469 74.9125C67.222 74.9889 67.219 75.0708 67.2383 75.1488C67.2577 75.2268 67.2985 75.2979 67.3563 75.3539L70.1484 78.0659C70.4908 78.3982 70.7468 78.8084 70.8945 79.2612C71.0422 79.714 71.0772 80.1958 70.9963 80.6651L70.3371 84.4943C70.3233 84.5737 70.3321 84.6554 70.3625 84.7301C70.393 84.8048 70.4439 84.8694 70.5095 84.9167C70.575 84.964 70.6526 84.992 70.7333 84.9975C70.8141 85.003 70.8947 84.9858 70.9662 84.9479L74.4181 83.1402C74.8403 82.9191 75.3099 82.8034 75.7868 82.803Z" fill="#5B1B72"/>
<path opacity="0.31" d="M56.0221 158.591C56.0221 158.591 51.9053 173.51 39.2988 171.163C39.2988 171.163 53.3985 183.83 56.0221 158.591Z" fill="#5B1B72"/>
<path opacity="0.31" d="M53.2872 171.033H124.31C124.31 171.033 123.843 174.837 118.291 174.24C112.74 173.643 51.4121 174.342 51.4121 174.342L53.2872 171.033Z" fill="#5B1B72"/>
<path d="M10.9194 173.929C13.5895 173.407 16.2597 173.268 18.9291 173.211C21.5992 173.139 24.2694 173.177 26.9395 173.217C29.6096 173.256 32.2791 173.256 34.9492 173.251H123.058H127.063C128.399 173.251 129.733 173.205 131.069 173.184C133.738 173.172 136.408 173.202 139.079 173.931C139.153 173.951 139.219 173.995 139.266 174.057C139.313 174.118 139.339 174.193 139.339 174.27C139.339 174.347 139.313 174.422 139.266 174.484C139.219 174.545 139.153 174.589 139.079 174.61C136.408 175.338 133.738 175.369 131.069 175.357C129.733 175.335 128.399 175.288 127.063 175.29H123.058H34.9492C32.2793 175.285 29.6094 175.296 26.9395 175.323C24.2694 175.363 21.5992 175.402 18.9291 175.329C16.2597 175.272 13.5895 175.133 10.9194 174.611C10.8408 174.595 10.77 174.553 10.7192 174.491C10.6684 174.429 10.6406 174.351 10.6406 174.271C10.6406 174.191 10.6684 174.114 10.7192 174.052C10.77 173.99 10.8408 173.948 10.9194 173.932V173.929Z" fill="#5B1B72"/>
</g>
<defs>
<clipPath id="clip0_1016_3747">
<rect width="150" height="181" fill="white" transform="translate(0 0.5)"/>
</clipPath>
</defs>
</svg>
